<svg width="32" height="33" viewBox="0 0 32 33" fill="none" xmlns="http://www.w3.org/2000/svg">
<g clip-path="url(#clip0_4_241)">
<path d="M16 32.4082C24.8366 32.4082 32 25.2448 32 16.4082C32 7.57165 24.8366 0.408203 16 0.408203C7.16344 0.408203 0 7.57165 0 16.4082C0 25.2448 7.16344 32.4082 16 32.4082Z" fill="#8E99A9"/>
<path d="M23.2752 10.9521C23.2752 10.9521 21.1939 9.3208 18.7314 9.1333L18.5127 9.57705C20.7377 10.1208 21.7564 10.9021 22.8252 11.8583C20.9877 10.9208 19.1689 10.0396 16.0064 10.0396C12.8439 10.0396 11.0252 10.9208 9.18769 11.8583C10.2564 10.9021 11.4689 10.0333 13.5002 9.57705L13.2814 9.1333C10.7002 9.37705 8.73769 10.9521 8.73769 10.9521C8.73769 10.9521 6.4127 14.3271 6.0127 20.9521C8.35644 23.6583 11.9189 23.677 11.9189 23.677L12.6627 22.6833C11.4002 22.2458 9.96894 21.4583 8.73769 20.0396C10.2064 21.1521 12.4314 22.3146 16.0127 22.3146C19.5939 22.3146 21.8127 21.1583 23.2877 20.0396C22.0564 21.4583 20.6252 22.2458 19.3627 22.6833L20.1064 23.677C20.1064 23.677 23.6689 23.6583 26.0127 20.9521C25.6002 14.3271 23.2752 10.9521 23.2752 10.9521ZM13.0439 19.1333C12.1627 19.1333 11.4502 18.3208 11.4502 17.3146C11.4502 16.3083 12.1627 15.4958 13.0439 15.4958C13.9252 15.4958 14.6377 16.3083 14.6377 17.3146C14.6377 18.3208 13.9252 19.1333 13.0439 19.1333ZM18.9564 19.1333C18.0752 19.1333 17.3627 18.3208 17.3627 17.3146C17.3627 16.3083 18.0752 15.4958 18.9564 15.4958C19.8377 15.4958 20.5502 16.3083 20.5502 17.3146C20.5502 18.3208 19.8314 19.1333 18.9564 19.1333Z" fill="white"/>
</g>
<defs>
<clipPath id="clip0_4_241">
<rect width="32" height="32" fill="white" transform="translate(0 0.408203)"/>
</clipPath>
</defs>
</svg>
