<svg width="32" height="33" viewBox="0 0 32 33" fill="none" xmlns="http://www.w3.org/2000/svg">
<path d="M15.8696 19.3998C17.4501 19.3998 18.7313 18.1185 18.7313 16.538C18.7313 14.9575 17.4501 13.6763 15.8696 13.6763C14.2891 13.6763 13.0078 14.9575 13.0078 16.538C13.0078 18.1185 14.2891 19.3998 15.8696 19.3998Z" fill="#8E99A9"/>
<path d="M19.4472 9.51367H12.2928C11.2522 9.51367 10.3416 9.83887 9.75626 10.4242C9.1709 11.0096 8.8457 11.9201 8.8457 12.9608V20.1152C8.8457 21.1558 9.1709 22.0663 9.8213 22.7167C10.4717 23.3021 11.3172 23.6273 12.3579 23.6273H19.4472C20.4878 23.6273 21.3984 23.3021 21.9837 22.7167C22.6341 22.1314 22.9593 21.2208 22.9593 20.1802V13.0258C22.9593 11.9852 22.6341 11.1397 22.0488 10.4893C21.3984 9.83887 20.5529 9.51367 19.4472 9.51367ZM15.87 20.9607C13.3985 20.9607 11.4473 18.9444 11.4473 16.538C11.4473 14.0665 13.4635 12.1153 15.87 12.1153C18.2765 12.1153 20.3577 14.0665 20.3577 16.538C20.3577 19.0095 18.3415 20.9607 15.87 20.9607ZM20.4878 12.9608C19.9025 12.9608 19.4472 12.5055 19.4472 11.9201C19.4472 11.3348 19.9025 10.8795 20.4878 10.8795C21.0732 10.8795 21.5285 11.3348 21.5285 11.9201C21.5285 12.5055 21.0732 12.9608 20.4878 12.9608Z" fill="#8E99A9"/>
<path d="M15.9998 0.408203C7.15437 0.408203 0 7.56258 0 16.408C0 25.2534 7.15437 32.4078 15.9998 32.4078C24.8452 32.4078 31.9996 25.2534 31.9996 16.408C32.0646 7.56258 24.8452 0.408203 15.9998 0.408203ZM24.52 20.1803C24.52 21.6762 23.9997 22.977 23.0891 23.8876C22.1786 24.7981 20.8778 25.2534 19.4469 25.2534H12.3576C10.9267 25.2534 9.62588 24.7981 8.71533 23.8876C7.73973 22.977 7.28445 21.6762 7.28445 20.1803V13.0259C7.28445 10.0341 9.30069 7.95281 12.3576 7.95281H19.5119C21.0078 7.95281 22.2436 8.47313 23.1542 9.38369C24.0647 10.2942 24.52 11.53 24.52 13.0259V20.1803V20.1803Z" fill="#8E99A9"/>
</svg>
