<svg width="32" height="33" viewBox="0 0 32 33" fill="none" xmlns="http://www.w3.org/2000/svg">
<g clip-path="url(#clip0_4_236)">
<path d="M16 0.408203C7.163 0.408203 0 7.5712 0 16.4082C0 25.2442 7.163 32.4082 16 32.4082C24.837 32.4082 32 25.2442 32 16.4082C32 7.5712 24.837 0.408203 16 0.408203Z" fill="#8E99A9"/>
<path d="M24.2933 23.3501V17.2131C24.2933 13.9251 22.5383 12.3951 20.1973 12.3951C18.3083 12.3951 17.4623 13.4341 16.9913 14.1631V12.6461H13.4333C13.4803 13.6511 13.4333 23.3501 13.4333 23.3501H16.9913V17.3721C16.9913 17.0531 17.0143 16.7331 17.1083 16.5051C17.3653 15.8661 17.9503 15.2041 18.9333 15.2041C20.2213 15.2041 20.7363 16.1851 20.7363 17.6241V23.3511L24.2933 23.3501ZM9.68431 11.1851C10.9243 11.1851 11.6973 10.3621 11.6973 9.33508C11.6743 8.28508 10.9243 7.48608 9.70731 7.48608C8.49031 7.48608 7.69531 8.28508 7.69531 9.33508C7.69531 10.3631 8.46731 11.1851 9.66231 11.1851H9.68431ZM11.4633 23.3501V12.6461H7.90631V23.3501H11.4633Z" fill="white"/>
</g>
<defs>
<clipPath id="clip0_4_236">
<rect width="32" height="32" fill="white" transform="translate(0 0.408203)"/>
</clipPath>
</defs>
</svg>
