<svg width="32" height="33" viewBox="0 0 32 33" fill="none" xmlns="http://www.w3.org/2000/svg">
<g clip-path="url(#clip0_4_231)">
<path fill-rule="evenodd" clip-rule="evenodd" d="M16 32.4082C24.8366 32.4082 32 25.2448 32 16.4082C32 7.57165 24.8366 0.408203 16 0.408203C7.16344 0.408203 0 7.57165 0 16.4082C0 25.2448 7.16344 32.4082 16 32.4082Z" fill="#8E99A9"/>
<path fill-rule="evenodd" clip-rule="evenodd" d="M21.8946 10.2412C21.2499 9.50814 20.3311 9.04108 19.3143 9.02415C17.3621 8.99166 15.7792 10.6413 15.7792 12.7086C15.7792 13.002 15.8104 13.2881 15.8707 13.5628C12.9327 13.3722 10.3279 11.8423 8.58437 9.53615C8.28008 10.0888 8.1057 10.7346 8.1057 11.4265C8.1057 12.7363 8.7298 13.8987 9.67835 14.5851C9.09888 14.5595 8.55379 14.384 8.07718 14.0963C8.07684 14.112 8.07684 14.1277 8.07684 14.1437C8.07684 15.9729 9.2954 17.5073 10.9126 17.8648C10.616 17.9488 10.3037 17.9928 9.98127 17.9907C9.75348 17.9892 9.53198 17.9639 9.31616 17.9186C9.76597 19.4186 11.0715 20.5132 12.6184 20.5494C11.4086 21.5537 9.88435 22.1519 8.22804 22.1484C7.9427 22.1479 7.66132 22.1294 7.38477 22.0939C8.94923 23.1674 10.8074 23.7924 12.8038 23.7929C19.306 23.7946 22.8619 18.136 22.8619 13.2279C22.8619 13.0669 22.8583 12.9067 22.8516 12.7473C23.5423 12.2327 24.1416 11.5874 24.6155 10.8505C23.9816 11.1363 23.3002 11.3261 22.5852 11.4057C23.315 10.9565 23.8756 10.2377 24.1395 9.37563C23.4564 9.78989 22.6999 10.087 21.8946 10.2412Z" fill="white"/>
</g>
<defs>
<clipPath id="clip0_4_231">
<rect width="32" height="32" fill="white" transform="translate(0 0.408203)"/>
</clipPath>
</defs>
</svg>
